<?xml version="1.0" encoding="UTF-8"?><svg id="Layer_1" xmlns="http://www.w3.org/2000/svg" xmlns:xlink="http://www.w3.org/1999/xlink" viewBox="0 0 4995.13 2327.07"><defs><style>.cls-1,.cls-2,.cls-3{fill:none;}.cls-4{clip-path:url(#clippath);}.cls-5{fill:#f89c4a;opacity:.65;}.cls-5,.cls-6{isolation:isolate;}.cls-6{fill:#fff;opacity:.4;}.cls-2{stroke-miterlimit:2.61;}.cls-2,.cls-3{stroke:#231f20;stroke-linecap:round;stroke-width:17px;}.cls-3{stroke-linejoin:round;}</style><clipPath id="clippath"><polyline class="cls-1" points="1988.74 676.28 2023.47 598.63 2059.78 466.24 2114.21 360.86 2184.47 321.67 2279.57 289.86 2390.15 274.5 2456.6 271.98 2456.6 177.02 2296.11 8.22 2059.74 0 1832.13 117.69 1766 296.66 1770.86 471.74 1854.38 624.45 1947.88 682.83"/></clipPath></defs><g id="Layer_6"><g><path class="cls-2" d="M2521.1,1748.15c4.08,106.18,6.54,160.57,.42,242.25-6.12,81.68-22.46,148.39-52.95,184.38-30.49,36.01-75.14,41.31-139.39,35.81-64.25-5.52-148.11-21.84-221.07-36.29-72.98-14.42-135.05-26.95-199.3-32.95-64.25-5.98-130.69-5.44-201.2,5.44-70.52,10.88-145.11,32.13-232.69,49.17-87.56,17.04-188.1,29.91-290.1,21.08-102-8.82-205.46-39.31-309.89-16.5-104.44,22.8-209.84,98.9-316.03,114.7-106.16,15.8-213.11-28.71-304.97-52.47-91.86-23.77-168.64-26.79-245.43-29.81"/><path class="cls-2" d="M2552.54,1745.13c.14,115.84-6.66,231.41-10.62,277.42-3.94,46.01-5.04,46.29-3.24,44.01,1.78-2.28,6.46-7.1,27.29-28.61,20.82-21.5,57.81-59.69,129.23-94.22,71.42-34.51,177.26-65.35,318.83-63.71,141.57,1.64,360.92,35.75,486.06,60.41,125.15,24.69,198.1,39.93,267.28,73.74,69.17,33.83,134.57,86.22,168.4,113.16,33.83,26.95,36.09,28.47,37.23,29.51,1.14,1.02,1.14,1.58-23.71-65.39-24.85-66.97-74.54-201.46-94.68-310.31-20.14-108.84-10.78-192.04-6.12-234.89,4.66-42.87,4.6-45.39,4.5-46.53-.08-1.14-.2-.88-20.64-17.1-20.44-16.22-61.23-48.91-86.9-72.7-25.67-23.79-36.19-38.63-41.97-46.81-5.78-8.16-6.82-9.64-7.62-10.58-.8-.94-1.34-1.34,12.06,80.06,13.4,81.4,40.77,244.63,59.35,350.73,18.58,106.12,28.39,155.11,64.05,206.3,35.67,51.19,97.2,104.54,141.23,139.27,44.03,34.71,70.58,50.77,84.12,58.71,13.54,7.92,14.06,7.72-13.84-44.35-27.93-52.09-84.3-156.05-116.44-270.7-32.17-114.66-40.11-240.01-43.97-302.82s-3.66-63.07-3.52-63.19,.18-.08,5.62,2.32c5.44,2.38,16.28,7.1,26.75,10.22,10.46,3.1,20.52,4.6,25.43,5.24,4.9,.64,4.6,.4,4.52,.62s.04,.88,2.22,12.64c2.18,11.76,6.44,34.59,30.49,120.35,24.05,85.76,67.87,234.41,104.02,347.73,36.15,113.32,64.59,191.34,79.1,230.87,14.5,39.55,15.04,40.63,13.14,40.99-1.88,.36-6.22-.02-52.43-4.12-46.21-4.08-134.33-11.86-225.75-31.55-91.42-19.68-186.18-51.27-305.71-81.48-119.53-30.23-305.87-59.07-437.91-70.8-132.05-11.7-251.83-6.26-352.98,6.66-101.14,12.92-183.64,33.35-237.05,46.93-53.41,13.56-77.74,20.3-116.4,22.74-38.67,2.46-91.66,.62-166.9-13.9-75.24-14.52-172.7-41.75-274.8-58.35-102.1-16.6-208.82-22.6-340.87-2.72-132.05,19.88-289.42,65.61-411.09,100.8-121.69,35.19-207.68,59.83-252.33,72.64-44.65,12.8-47.95,13.74-49.73,13.8-1.78,.06-2.06-.76,28.93-129.59,30.99-128.83,93.24-385.66,125.09-517.09,31.85-131.43,33.31-137.47,36.09-140.69,2.78-3.22,6.86-3.62,25.11-9.86,18.24-6.22,50.63-18.28,79.76-40.61,29.13-22.32,54.99-54.93,68.01-71.54,13-16.62,13.14-17.26-12.36,62.19-25.51,79.44-76.66,238.97-121.39,375.96-44.73,136.99-83.02,251.45-102.56,309.65-19.54,58.19-20.36,60.09-20.24,60.95,.12,.86,1.2,.66,49.25-7.9,48.05-8.58,143.09-25.55,272.02-56.35,128.93-30.81,291.74-75.46,412.35-96.14,120.61-20.68,199.02-17.42,287.5,8.44,88.48,25.87,187.04,74.34,255.13,96.42,68.09,22.08,105.74,17.78,126.75-7.5,21-25.29,25.35-71.58,5.2-120.99-20.14-49.41-64.79-101.96-130.17-136.85-65.37-34.89-151.47-52.09-248.43-41.65-96.96,10.44-204.78,48.57-329.17,77.56-124.41,28.99-265.38,48.83-348.81,59.03-83.46,10.2-109.36,10.78-121.91,11.48s-11.74,1.52,6.38-112.7c18.1-114.2,53.49-343.45,71.4-458.22,17.9-114.76,18.3-115.02,19.28-115.12,.96-.1,2.5,0,24.97,5.16,22.46,5.18,65.85,15.44,121.93,21.92,56.07,6.5,124.81,9.22,209.82,3.78,85.02-5.44,260.44-29.77,345.11-43.37"/><path class="cls-2" d="M4986.63,2233.26c-43.57,19.6-87.12,39.21-139.85,43.43-52.73,4.22-114.62-6.94-184.38-26.67-69.74-19.72-147.33-48.01-223.19-54.69-75.86-6.66-149.99,8.28-252.37,34.37-102.38,26.09-232.99,63.31-340.91,41.91-107.92-21.4-193.14-101.46-296.66-155.29-103.52-53.83-267.4-81.48-381.68-87.94-114.28-6.46-221.01,8.24-326.37,26.49-105.36,18.24-209.36,40.03-234.13,22.98-24.77-17.04,29.73-72.92,112.04-108.06,82.32-35.15,192.5-49.59,363.48-34.45,170.98,15.14,444.82,59.89,562.06,82.52,117.25,22.62,119.93,23.14,121.41,23.16,1.48,0,1.72-.5-7.16-26.39-8.88-25.91-26.91-77.18-41.91-169.26-15-92.08-26.99-224.95-32.71-314.35-5.72-89.42-5.2-135.39-4.96-158.65,.24-23.26,.2-23.81-.44-23.73-.64,.08-1.88,.78-29.57,1.52-27.69,.74-212.41-6.68-274.66-11.2"/></g></g><g id="Layer_4"><g><path class="cls-5" d="M2815.42,1350.79c9.7-46.45,156.91-407.45,405.45-248.83,248.53,158.61,105.86,458.36,8.16,546.54-97.7,88.18-489.44,65.27-413.59-297.68l-.02-.02Z"/><path class="cls-6" d="M3114.7,1096.79c-37.23-12.44-161.21,34.89-149.53,68.47,11.68,33.59,64.09,136.61,100.06,135.95,35.97-.66,85.7-192.32,49.45-204.44l.02,.02Z"/><path class="cls-6" d="M3103.94,1424.64c-19.14,.24-103.64,189.04-95.94,211.71,7.72,22.68,149.49,18.64,176.94-1.26,27.45-19.9-51.61-210.85-81.02-210.45h.02Z"/><path class="cls-6" d="M3023.37,1313.22s-84.06-110.42-106.72-86.68c-22.64,23.75-84.56,131.79-71.08,178.5,13.48,46.73,202.52-27.05,205.94-41.67,3.42-14.62-28.15-50.15-28.15-50.15h0Z"/><path class="cls-6" d="M3057.47,1390.18c-2.52-.12-187.54,60.49-187.74,82.24-.2,21.74,41.07,116.71,67.59,135.61,26.51,18.9,55.93-5.98,65.07-31.07,9.12-25.09,84.08-185.44,55.09-186.78h-.02Z"/><path class="cls-6" d="M3101.96,1304.38s64.69-158.21,83.42-154.73c18.72,3.48,118.53,64.03,119.27,109.58,.74,45.55-186.8,85.18-196.04,79.38-9.22-5.78-6.64-34.23-6.64-34.23Z"/><path class="cls-6" d="M3118.85,1360.97c-8.42,4.24-4.56,33.43,15.54,55.37,20.1,21.94,86.12,160.81,109.96,152.79,23.87-8.04,107.18-214.53,77.44-219.67-29.73-5.14-188.18,4.08-202.94,11.52v-.02Z"/></g><g class="cls-4"><g><path class="cls-5" d="M2342.3,583.48c-40.71,33.29-423.01,236.35-543.1-95.4C1679.12,156.33,2015.35,3.54,2165.54,1.74c150.17-1.78,494.79,321.67,176.76,581.74Z"/><path class="cls-6" d="M1893.3,574.8c25.73,39.75,172.14,94.18,184.36,55.63,12.24-38.55,34.49-169.62,.96-196.9-33.53-27.29-210.37,102.56-185.32,141.25v.02Z"/><path class="cls-6" d="M2127.45,295.2c17.78,14.6,224.63-85.76,233.05-111.66,8.42-25.91-124.75-132.13-163.6-135.91-38.85-3.78-96.74,225.15-69.45,247.57Z"/><path class="cls-6" d="M2125.35,455.46s1.78,162.07,38.85,158.77c37.07-3.32,167.92-50.27,187.46-101.74,19.54-51.49-204.74-133.07-217.91-122.87-13.16,10.2-8.4,65.85-8.4,65.85v-.02Z"/><path class="cls-6" d="M2146.62,361.46c2.24,2.04,213.87,92.1,228.93,73.16,15.04-18.94,42.05-134.31,30.61-171.46-11.44-37.13-55.53-38.07-81.1-23.1-25.57,14.96-204.18,97.76-178.44,121.39v.02Z"/><path class="cls-6" d="M2047.02,402.37s-167.72,88.86-182.56,71.32c-14.84-17.54-65.21-148.01-34.73-188.6,30.49-40.59,230.07,69.85,234.59,82.08,4.52,12.22-17.3,35.21-17.3,35.21Z"/><path class="cls-6" d="M2070.2,339.59c10.64,2.8,27.07-25.83,23.59-60.65-3.48-34.85,30.81-207.92,3.36-219.35-27.45-11.42-245.31,105.42-221.49,132.97,23.83,27.55,175.86,142.15,194.52,147.05l.02-.02Z"/></g></g></g><g id="Layer_2"><g><path class="cls-3" d="M2423.88,744.22c-13.6,24.51-310.27,29.95-315.71-27.21-5.44-57.15,707.61-21.76,696.73,21.78-10.88,43.55-291.2,40.83-304.83,19.06-13.6-21.78,76.22-389.2,108.86-413.69,32.67-24.51,85.78,1.22,85.78,1.22,69.89,13.98,132.79,52.41,136.29,83.86,3.5,31.45-20.96,69.89-157.25,80.38-136.27,10.48-311.01,24.47-408.85-6.98-97.84-31.45-146.77-94.36-129.29-62.89,17.48,31.45,3.5,237.63,3.5,314.51s20.96,387.88,94.34,335.47c73.38-52.41,111.82-324.99,55.91-356.44-55.91-31.45-104.82,69.89-104.82,167.74s62.89,258.6,108.32,241.13c45.43-17.46,101.34-202.68,157.25-192.2,55.91,10.48,150.27,83.88,157.25,115.3,6.98,31.45-104.84,192.2-143.29,195.7-38.45,3.5-115.3-80.38-115.3-94.36s139.77,90.86,136.29,129.29c-3.5,38.45-195.68,115.32-241.11,94.36-45.43-20.96-101.34-206.16-59.39-136.27,41.93,69.87,38.43,338.95,41.93,370.42,3.5,31.45,80.38,83.88,230.63,90.86,150.27,6.98,258.6-94.36,265.6-122.31,6.98-27.95,115.32-429.81,118.81-712.87,3.5-283.04,20.96-352.94-10.48-356.44-31.45-3.5-90.86,3.5-90.86,108.32s3.5,377.42-3.5,513.69c-6.98,136.29-41.93,380.9-87.36,429.81-45.41,48.93-258.58,139.79-258.58,59.41s402.77-67.45,402.77-67.45c0,0,125.77,109.58,60.91,71.42-64.85-38.15-83.94-202.18-19.06-343.35,64.85-141.15,156.41-270.86,335.71-221.27,179.3,49.59,175.48,251.79,171.68,377.68-3.82,125.89-118.27,259.42-259.42,247.97-141.17-11.44-206.02-68.67-217.45-171.68-11.44-103,240.33-125.89,206-118.27-34.33,7.62-206,11.44-206-26.71s30.53-125.91,64.85-125.91,148.77,129.71,148.77,95.38-129.71-114.44-110.64-152.61c19.08-38.15,103-91.56,133.53-64.85,30.53,26.71,3.82,236.53,30.53,209.82,26.71-26.71,38.15-202.2,87.76-171.68,49.59,30.53,76.3,99.2,76.3,122.09s-202.2,61.03-175.48,87.74c26.71,26.71,186.94-45.79,190.76-19.08,3.8,26.71,22.88,133.53-30.53,137.33-53.41,3.82-129.71-83.94-129.71-64.85s91.56,99.2,76.3,133.53c-15.26,34.33-76.3,76.3-110.62,61.03-34.33-15.26-34.33-175.5-34.33-175.5,0,0-22.88,160.23-64.85,160.23s-53.41-41.97-83.94-45.79c-30.53-3.82-38.15,87.74-11.44,114.44,26.71,26.71,152.59,49.59,228.89,41.97,76.3-7.64,213.65-133.53,202.18-144.99-11.44-11.44-72.48-7.62-30.53,7.64,41.97,15.26,225.09-3.82,225.09-3.82"/><path class="cls-3" d="M1664.83,1590c31.61-18.14,542.14-28.09,530.21-.62-27.97,20.96-122.31-496.23-122.31-765.28s27.97-440.31,41.93-457.78c13.98-17.46,115.32-94.36,345.95-94.36s401.89,59.41,363.44,118.81c-38.45,59.41-331.99,52.43-443.79,48.93-111.82-3.5-216.67-24.47-213.17-55.91,3.5-31.45,304.01-38.43,276.06-20.94-27.95,17.46,41.93-192.2-146.77-300.52-188.7-108.32-370.42,0-454.28,101.34-83.86,101.34-48.93,297.04-10.48,384.4,38.43,87.36,143.27,143.27,164.24,111.82,20.96-31.45,104.84-251.59,41.93-244.61-62.89,6.98-216.67,87.36-181.72,62.89,34.95-24.47,234.13-94.36,185.2-136.29-48.93-41.93-174.72-73.4-178.22-108.34s62.89-111.82,97.84-108.32c34.95,3.5,101.34,192.2,108.32,160.75,6.98-31.45-27.97-181.72,3.5-202.68,31.45-20.96,195.68-3.5,195.68,20.96s-97.84,185.2-101.34,150.25c-3.5-34.95,136.27-136.29,167.74-101.34,31.45,34.95,108.32,136.29,31.45,153.75,0,0-64.85,20.9-45.79-3.6,19.04-24.51,264,16.32,299.36,10.88"/></g></g></svg>