<?xml version="1.0" encoding="UTF-8"?><svg id="Layer_2_copy" xmlns="http://www.w3.org/2000/svg" xmlns:xlink="http://www.w3.org/1999/xlink" viewBox="0 0 5000 5578.29"><defs><style>.cls-1,.cls-2{fill:none;}.cls-3{clip-path:url(#clippath);}.cls-2{fill-rule:evenodd;stroke:#231f20;stroke-linecap:round;stroke-linejoin:round;stroke-width:7.26px;}.cls-4{fill:#fff;opacity:.4;}.cls-5{fill:#f99c48;opacity:.65;}</style><clipPath id="clippath"><polygon class="cls-1" points="349.94 4709.37 118.62 4078.49 0 3096.09 495.31 1058.72 1957.3 0 3754.45 0 4412.81 1132.85 5000 3271.37 4483.99 4015.42 4635.5 4245.66 4412.81 4555.16 3665.48 5302.49 2820.28 5578.29 1317.08 5401.28 349.94 4709.37"/></clipPath></defs><g class="cls-3"><g><g><path class="cls-5" d="M272.07,2421.77c76.68-366.93,1239.24-3217.99,3202.11-1965.32,1962.87,1252.67,836.1,3619.99,64.42,4316.44-771.68,696.44-3865.57,515.52-3266.54-2351.12Z"/><path class="cls-4" d="M2635.77,415.81c-294.02-98.24-1273.18,275.58-1180.94,540.87,92.24,265.29,506.24,1078.95,790.34,1073.74,284.11-5.21,676.83-1518.97,390.6-1614.61Z"/><path class="cls-4" d="M2550.78,3005.09c-151.22,1.97-818.62,1492.97-757.66,1672.1,60.96,179.13,1180.7,147.2,1397.49-9.96,216.79-157.15-407.67-1665.17-639.83-1662.14Z"/><path class="cls-4" d="M1914.42,2125.08s-663.92-872.13-842.81-684.6c-178.89,187.53-667.83,1040.82-561.28,1409.81,106.55,368.99,1599.43-213.59,1626.46-329.13,27.03-115.53-222.37-396.09-222.37-396.09Z"/><path class="cls-4" d="M2183.71,2732.85c-19.84-.92-1481.22,477.79-1482.8,649.46-1.58,171.66,324.42,921.72,533.8,1071.06,209.38,149.34,441.8-47.17,513.88-245.35,72.08-198.18,664.11-1464.61,435.13-1475.17Z"/><path class="cls-4" d="M2535.11,2055.25s510.93-1249.56,658.82-1222.13c147.89,27.43,936.09,505.72,941.93,865.49,5.84,359.77-1475.38,672.7-1548.27,626.97-72.88-45.72-52.48-270.33-52.48-270.33Z"/><path class="cls-4" d="M2668.44,2502.18c-66.48,33.48-36.03,263.95,122.72,437.29,158.76,173.33,680.1,1270.15,868.53,1206.72,188.43-63.44,846.44-1694.34,611.62-1734.93-234.81-40.6-1486.27,32.19-1602.88,90.93Z"/></g><g><path class="cls-2" d="M-2820.22-2368.85c-107.42,193.48-2450.42,236.47-2493.39-214.94-42.97-451.4,5588.7-171.91,5502.67,171.98-85.94,343.89-2299.92,322.4-2407.46,150.51-107.42-171.99,601.92-3073.82,859.85-3267.3,257.93-193.48,677.51,9.63,677.51,9.63,552.02,110.4,1048.82,413.92,1076.42,662.32,27.6,248.4-165.61,552-1242.03,634.8-1076.31,82.82-2456.25,193.22-3229.07-55.2-772.72-248.39-1159.14-745.2-1021.14-496.79,138.02,248.4,27.6,1876.73,27.6,2483.96s165.62,3063.47,745.15,2649.46c579.59-413.91,883.22-2566.66,441.59-2815.06-441.59-248.42-827.92,551.99-827.92,1324.72s496.72,2042.36,855.52,1904.35c358.82-137.99,800.42-1600.73,1241.94-1517.93,441.6,82.79,1186.82,662.42,1242.03,910.71,55.19,248.43-828.03,1518.05-1131.62,1545.65-303.6,27.6-910.72-634.82-910.72-745.22s1103.91,717.62,1076.32,1021.14c-27.6,303.61-1545.54,910.83-1904.34,745.2-358.82-165.59-800.34-1628.33-469.12-1076.31,331.12,551.92,303.52,2677.05,331.12,2925.45,27.6,248.44,634.79,662.42,1821.54,717.62,1186.82,55.15,2042.34-745.22,2097.57-966.02,55.19-220.77,910.79-3394.68,938.39-5630.24,27.63-2235.46,165.62-2787.45-82.8-2815.05-248.39-27.6-717.6,27.6-717.6,855.52s27.6,2980.75-27.6,4057.09c-55.2,1076.33-331.22,3008.28-690.02,3394.68-358.72,386.4-2042.26,1104.02-2042.26,469.2S98.96,4132.38,98.96,4132.38c0,0,993.27,865.43,481.01,564.1C67.77,4395.17-82.89,3099.6,429.37,1984.77,941.57,869.97,1664.67-154.49,3080.81,237.21c1416.09,391.72,1385.97,1988.59,1355.87,2982.95-30.12,994.23-934.04,2048.81-2048.84,1958.45-1114.89-90.45-1627.09-542.39-1717.43-1355.94-90.45-813.45,1898.13-994.23,1626.98-934.01-271.15,60.24-1626.98,90.37-1626.98-210.91s241.03-994.34,512.18-994.34,1175.04,1024.46,1175.04,753.31-1024.38-903.89-873.78-1205.25c150.69-301.27,813.54-723.11,1054.57-512.18,241.03,210.91,30.12,1868.15,241.03,1657.21,210.92-210.93,301.35-1596.97,693.09-1355.94,391.61,241.11,602.54,783.42,602.54,964.22s-1596.9,482.06-1385.97,692.97c210.91,210.91,1476.41-361.6,1506.53-150.66,30.1,210.93,180.79,1054.58-241.04,1084.68-421.84,30.2-1024.46-662.86-1024.46-512.16s723.08,783.42,602.62,1054.57c-120.54,271.15-602.62,602.6-873.77,482.05-271.15-120.47-271.15-1385.99-271.15-1385.99,0,0-180.79,1265.52-512.26,1265.52s-421.84-331.48-662.89-361.57c-241.03-30.12-301.25,692.96-90.34,903.89,210.91,210.91,1205.17,391.72,1807.79,331.48,602.62-60.35,1687.32-1054.58,1596.87-1145.05-90.34-90.31-572.42-60.22-241.03,60.35,331.48,120.49,1777.75-30.2,1777.75-30.2"/><path class="cls-2" d="M-8815.14,4311.14c249.67-143.32,4281.69-221.89,4187.5-4.89-220.79,165.63-966.02-3919.09-966.02-6044.16s220.8-3477.58,331.2-3615.48c110.4-138,910.75-745.22,2732.28-745.22s3173.98,469.22,2870.36,938.32c-303.6,469.22-2621.96,414.03-3505.07,386.43-883.22-27.61-1711.14-193.2-1683.54-441.63,27.6-248.29,2401.06-303.5,2180.26-165.49-220.72,138,331.2-1518.05-1159.14-2373.57-1490.34-855.51-2925.51,0-3587.88,800.32-662.37,800.42-386.37,2345.96-82.78,3035.99,303.57,689.92,1131.57,1131.51,1297.14,883.11,165.61-248.4,827.97-1987.13,331.18-1931.93-496.75,55.2-1711.15,689.99-1435.14,496.8,276-193.2,1849.14-745.22,1462.74-1076.32-386.38-331.22-1379.97-579.62-1407.57-855.62-27.57-276.02,496.79-883.14,772.79-855.54,276,27.6,800.4,1517.94,855.57,1269.54,55.2-248.4-220.79-1435.14,27.6-1600.74,248.4-165.6,1545.54-27.6,1545.54,165.6s-772.72,1462.74-800.32,1186.74c-27.6-276,1076.31-1076.34,1324.74-800.32,248.4,276,855.52,1076.32,248.4,1214.32,0,0-512.19,165.06-361.68-28.39,150.38-193.48,2084.94,128.9,2364.39,85.93"/></g></g></g></svg>