<?xml version="1.0" encoding="UTF-8"?><svg id="Layer_2_copy" xmlns="http://www.w3.org/2000/svg" xmlns:xlink="http://www.w3.org/1999/xlink" viewBox="0 0 5851.94 5649.21"><defs><style>.cls-1,.cls-2{fill:none;}.cls-3{clip-path:url(#clippath);}.cls-2{fill-rule:evenodd;stroke:#231f20;stroke-linecap:round;stroke-linejoin:round;stroke-width:7.26px;}.cls-4{clip-path:url(#clippath-1);}.cls-5{fill:#fff;opacity:.4;}.cls-6{fill:#f99c48;opacity:.65;}</style><clipPath id="clippath"><polygon class="cls-1" points="5851.94 2243.47 5591.05 2289.86 5103.69 2307.08 3135.45 2867.4 2886.9 2991.81 1993.44 5649.21 1006.86 5426.22 0 3912.55 0 2358.34 459.51 1304.18 1763.69 278.03 3263.84 0 4264.75 229.75 5389.67 1328.08 5784.36 2027.23 5851.94 2243.47"/></clipPath><clipPath id="clippath-1"><polyline class="cls-1" points="1895.89 5482.94 2170.24 4869.75 2457 3824.02 2886.9 2991.81 3441.82 2682.33 4192.87 2431.01 5066.14 2309.77 5591.05 2289.86 5591.05 1539.88 4323.47 206.69 2456.69 141.72 659.06 1071.26 136.67 2484.79 175.08 3867.59 834.69 5073.69 1573.24 5534.63"/></clipPath></defs><g class="cls-3"><g><g class="cls-4"><g><path class="cls-6" d="M4688.27,4750.09c-321.5,262.9-3340.88,1866.75-4289.31-753.45C-549.46,1376.45,2106.11,169.75,3292.2,155.61c1186.09-14.13,3907.81,2540.57,1396.07,4594.48Z"/><path class="cls-5" d="M1142.26,4681.57c203.22,313.96,1359.45,743.86,1456.08,439.42,96.63-304.43,272.42-1339.66,7.56-1555.08-264.86-215.42-1661.48,810.01-1463.64,1115.65Z"/><path class="cls-5" d="M2991.51,2473.21c140.43,115.37,1774.1-677.38,1840.55-881.91,66.46-204.53-985.21-1043.57-1292.09-1073.41-306.88-29.84-764.06,1778.21-548.47,1955.32Z"/><path class="cls-5" d="M2974.84,3738.9s14.07,1280.11,306.86,1253.92c292.79-26.18,1326.14-397.01,1480.54-803.61,154.4-406.6-1617.11-1050.94-1720.99-970.39-103.88,80.54-66.41,520.08-66.41,520.08Z"/><path class="cls-5" d="M3142.89,2996.57c17.62,16.17,1689.1,727.35,1807.98,577.81,118.88-149.54,332.09-1060.78,241.68-1354.07-90.42-293.3-438.59-300.68-640.44-182.44-201.85,118.24-1612.59,772.11-1409.22,958.7Z"/><path class="cls-5" d="M2356.22,3319.59s-1324.62,701.85-1441.87,563.24c-117.25-138.61-515.01-1169.05-274.3-1489.56,240.71-320.51,1817.05,551.65,1852.81,648.25,35.76,96.6-136.64,278.07-136.64,278.07Z"/><path class="cls-5" d="M2539.31,2823.81c84.04,22.07,213.69-203.93,186.24-479.1-27.45-275.18,243.31-1642.23,26.61-1732.42-216.69-90.2-1937.42,832.69-1749.23,1050.18,188.19,217.49,1388.95,1122.63,1536.38,1161.35Z"/></g></g><g><path class="cls-2" d="M5332.64,6019.49c-107.42,193.48-2450.42,236.47-2493.39-214.94-42.97-451.4,5588.7-171.91,5502.67,171.98-85.94,343.89-2299.92,322.4-2407.46,150.51-107.42-171.99,601.92-3073.82,859.85-3267.3,257.93-193.48,677.51,9.63,677.51,9.63,552.02,110.4,1048.82,413.92,1076.42,662.32,27.6,248.4-165.61,552-1242.03,634.8-1076.31,82.82-2456.25,193.22-3229.07-55.2-772.72-248.39-1159.14-745.2-1021.14-496.79,138.02,248.4,27.6,1876.73,27.6,2483.96s165.62,3063.47,745.15,2649.46c579.59-413.91,883.22-2566.66,441.59-2815.06-441.59-248.42-827.92,551.99-827.92,1324.72s496.72,2042.36,855.52,1904.35c358.82-137.99,800.42-1600.73,1241.94-1517.93,441.6,82.79,1186.82,662.42,1242.03,910.71,55.19,248.43-828.03,1518.05-1131.62,1545.65-303.6,27.6-910.72-634.82-910.72-745.22s1103.91,717.62,1076.32,1021.14c-27.6,303.61-1545.54,910.83-1904.34,745.2-358.82-165.59-800.34-1628.33-469.12-1076.31,331.12,551.92,303.52,2677.05,331.12,2925.45,27.6,248.44,634.79,662.42,1821.54,717.62,1186.82,55.15,2042.34-745.22,2097.57-966.02,55.19-220.77,910.79-3394.68,938.39-5630.24,27.63-2235.46,165.62-2787.45-82.8-2815.05-248.39-27.6-717.6,27.6-717.6,855.52s27.6,2980.75-27.6,4057.09c-55.2,1076.33-331.22,3008.28-690.02,3394.68-358.72,386.4-2042.26,1104.02-2042.26,469.2,0-634.79,3181.06-532.67,3181.06-532.67,0,0,993.27,865.43,481.01,564.1-512.2-301.31-662.86-1596.89-150.6-2711.71,512.2-1114.8,1235.3-2139.26,2651.44-1747.56,1416.09,391.72,1385.97,1988.59,1355.87,2982.95-30.12,994.23-934.04,2048.81-2048.84,1958.45-1114.89-90.45-1627.09-542.39-1717.43-1355.94-90.45-813.45,1898.13-994.23,1626.98-934.01-271.15,60.24-1626.98,90.37-1626.98-210.91,0-301.25,241.03-994.34,512.18-994.34s1175.04,1024.46,1175.04,753.31c0-271.15-1024.38-903.89-873.78-1205.25,150.69-301.27,813.54-723.11,1054.57-512.18,241.03,210.91,30.12,1868.15,241.03,1657.21,210.92-210.93,301.35-1596.97,693.09-1355.94,391.61,241.11,602.54,783.42,602.54,964.22,0,180.79-1596.9,482.06-1385.97,692.97,210.91,210.91,1476.41-361.6,1506.53-150.66,30.1,210.93,180.79,1054.58-241.04,1084.68-421.84,30.2-1024.46-662.86-1024.46-512.16,0,150.62,723.08,783.42,602.62,1054.57-120.54,271.15-602.62,602.6-873.77,482.05-271.15-120.47-271.15-1385.99-271.15-1385.99,0,0-180.79,1265.52-512.26,1265.52-331.41,0-421.84-331.48-662.89-361.57-241.03-30.12-301.25,692.96-90.34,903.89,210.91,210.91,1205.17,391.72,1807.79,331.48,602.62-60.35,1687.32-1054.58,1596.87-1145.05-90.34-90.31-572.42-60.22-241.03,60.35,331.48,120.49,1777.75-30.2,1777.75-30.2"/><path class="cls-2" d="M-662.28,12699.48c249.67-143.32,4281.69-221.89,4187.5-4.89-220.79,165.63-966.02-3919.09-966.02-6044.16s220.8-3477.58,331.2-3615.48c110.4-138,910.75-745.22,2732.28-745.22,1821.54,0,3173.98,469.22,2870.36,938.32-303.6,469.22-2621.96,414.03-3505.07,386.43-883.22-27.61-1711.14-193.2-1683.54-441.63,27.6-248.29,2401.06-303.5,2180.26-165.49-220.72,138,331.2-1518.05-1159.14-2373.57-1490.34-855.51-2925.51,0-3587.88,800.32-662.37,800.42-386.37,2345.96-82.78,3035.99,303.57,689.92,1131.57,1131.51,1297.14,883.11,165.61-248.4,827.97-1987.13,331.18-1931.93-496.75,55.2-1711.15,689.99-1435.14,496.8,276-193.2,1849.14-745.22,1462.74-1076.32-386.38-331.22-1379.97-579.62-1407.57-855.62-27.57-276.02,496.79-883.14,772.79-855.54,276,27.6,800.4,1517.94,855.57,1269.54,55.2-248.4-220.79-1435.14,27.6-1600.74,248.4-165.6,1545.54-27.6,1545.54,165.6s-772.72,1462.74-800.32,1186.74c-27.6-276,1076.31-1076.34,1324.74-800.32,248.4,276,855.52,1076.32,248.4,1214.32,0,0-512.19,165.06-361.68-28.39,150.38-193.48,2084.94,128.9,2364.39,85.93"/></g></g></g></svg>