<?xml version="1.0" encoding="UTF-8"?><svg xmlns="http://www.w3.org/2000/svg" xmlns:xlink="http://www.w3.org/1999/xlink" viewBox="0 0 2887.26 1447.26"><defs><style>.cls-1,.cls-2,.cls-3{fill:none;}.cls-2{stroke-miterlimit:2.61;}.cls-2,.cls-3{fill-rule:evenodd;stroke:#231f20;stroke-linecap:round;stroke-width:7.26px;}.cls-4{clip-path:url(#clippath);}.cls-3{stroke-linejoin:round;}.cls-5{fill:#fff;opacity:.4;}.cls-6{fill:#f99c48;opacity:.65;}</style><clipPath id="clippath"><polyline class="cls-1" points="1199.78 496.93 1217.14 458.11 1235.29 391.93 1262.5 339.25 1297.62 319.66 1345.16 303.76 1400.44 296.08 1433.66 294.82 1433.66 247.35 1353.43 162.97 1235.27 158.86 1121.49 217.69 1088.43 307.16 1090.86 394.68 1132.61 471.02 1179.35 500.2"/></clipPath></defs><g id="Layer_6"><g><path class="cls-2" d="M1465.9,1032.75c2.04,53.08,3.27,80.27,.21,121.1-3.06,40.83-11.23,74.18-26.47,92.17-15.24,18-37.56,20.65-69.68,17.9-32.12-2.76-74.04-10.92-110.51-18.14-36.48-7.21-67.51-13.47-99.63-16.47-32.12-2.99-65.33-2.72-100.58,2.72-35.25,5.44-72.54,16.06-116.32,24.58-43.77,8.52-94.03,14.95-145.02,10.54-50.99-4.41-102.71-19.65-154.91-8.25-52.21,11.4-104.9,49.44-157.98,57.34-53.07,7.9-106.53-14.35-152.45-26.23-45.92-11.88-84.3-13.39-122.69-14.9"/><path class="cls-2" d="M1481.62,1031.24c.07,57.91-3.33,115.68-5.31,138.68-1.97,23-2.52,23.14-1.62,22,.89-1.14,3.23-3.55,13.64-14.3,10.41-10.75,28.9-29.84,64.6-47.1,35.7-17.25,88.61-32.67,159.38-31.85,70.77,.82,180.42,17.87,242.98,30.2,62.56,12.34,99.03,19.96,133.61,36.86,34.58,16.91,67.27,43.1,84.18,56.57,16.91,13.47,18.04,14.23,18.61,14.75,.57,.51,.57,.79-11.85-32.69-12.42-33.48-37.26-100.71-47.33-155.12-10.07-54.41-5.39-96-3.06-117.42,2.33-21.43,2.3-22.69,2.25-23.26-.04-.57-.1-.44-10.32-8.55-10.22-8.11-30.61-24.45-43.44-36.34-12.83-11.89-18.09-19.31-20.98-23.4-2.89-4.08-3.41-4.82-3.81-5.29-.4-.47-.67-.67,6.03,40.02,6.7,40.69,20.38,122.29,29.67,175.33,9.29,53.05,14.19,77.54,32.02,103.13,17.83,25.59,48.59,52.26,70.6,69.62,22.01,17.35,35.28,25.38,42.05,29.35,6.77,3.96,7.03,3.86-6.92-22.17-13.96-26.04-42.14-78.01-58.21-135.32-16.08-57.32-20.05-119.98-21.98-151.38-1.93-31.4-1.83-31.53-1.76-31.59,.07-.06,.09-.04,2.81,1.16,2.72,1.19,8.14,3.55,13.37,5.11,5.23,1.55,10.26,2.3,12.71,2.62,2.45,.32,2.3,.2,2.26,.31-.04,.11,.02,.44,1.11,6.32,1.09,5.88,3.22,17.29,15.24,60.16,12.02,42.87,33.93,117.18,52,173.83,18.07,56.65,32.29,95.65,39.54,115.41,7.25,19.77,7.52,20.31,6.57,20.49-.94,.18-3.11-.01-26.21-2.06-23.1-2.04-67.15-5.93-112.85-15.77-45.7-9.84-93.07-25.63-152.82-40.73-59.75-15.11-152.9-29.53-218.91-35.39-66.01-5.85-125.89-3.13-176.45,3.33-50.56,6.46-91.8,16.67-118.5,23.46-26.7,6.78-38.86,10.15-58.19,11.37-19.33,1.23-45.82,.31-83.43-6.95-37.61-7.26-86.33-20.87-137.37-29.17-51.04-8.3-104.39-11.3-170.4-1.36-66.01,9.94-144.68,32.8-205.5,50.39-60.83,17.59-103.82,29.91-126.14,36.31-22.32,6.4-23.97,6.87-24.86,6.9-.89,.03-1.03-.38,14.46-64.78,15.49-64.4,46.61-192.79,62.53-258.49,15.92-65.7,16.65-68.72,18.04-70.33,1.39-1.61,3.43-1.81,12.55-4.93,9.12-3.11,25.31-9.14,39.87-20.3,14.56-11.16,27.49-27.46,34-35.76,6.5-8.31,6.57-8.63-6.18,31.09-12.75,39.71-38.32,119.46-60.68,187.94-22.36,68.48-41.5,125.7-51.27,154.79-9.77,29.09-10.18,30.04-10.12,30.47,.06,.43,.6,.33,24.62-3.95,24.02-4.29,71.53-12.77,135.98-28.17,64.45-15.4,145.84-37.72,206.13-48.06,60.29-10.34,99.49-8.71,143.72,4.22,44.23,12.93,93.5,37.16,127.54,48.2,34.04,11.04,52.86,8.89,63.36-3.75,10.5-12.64,12.67-35.78,2.6-60.48-10.07-24.7-32.39-50.97-65.07-68.41-32.68-17.44-75.72-26.04-124.19-20.82-48.47,5.22-102.37,24.28-164.55,38.77-62.19,14.49-132.66,24.41-174.37,29.51-41.72,5.1-54.67,5.39-60.94,5.74-6.27,.35-5.87,.76,3.19-56.34,9.05-57.09,26.74-171.69,35.69-229.06,8.95-57.37,9.15-57.5,9.64-57.55,.48-.05,1.25,0,12.48,2.58,11.23,2.59,32.92,7.72,60.95,10.96,28.03,3.25,62.39,4.61,104.89,1.89,42.5-2.72,130.19-14.88,172.52-21.68"/><path class="cls-2" d="M2698.4,1275.25c-21.78,9.8-43.55,19.6-69.91,21.71-26.36,2.11-57.3-3.47-92.17-13.33-34.86-9.86-73.65-24-111.57-27.34-37.92-3.33-74.98,4.14-126.16,17.18-51.18,13.04-116.47,31.65-170.42,20.95-53.95-10.7-96.55-50.72-148.3-77.63-51.75-26.91-133.67-40.73-190.8-43.96-57.13-3.23-110.48,4.12-163.15,13.24-52.67,9.12-104.66,20.01-117.04,11.49-12.38-8.52,14.86-36.45,56.01-54.02,41.15-17.57,96.23-24.79,181.7-17.22,85.47,7.57,222.36,29.94,280.97,41.25,58.61,11.31,59.95,11.57,60.69,11.58,.74,0,.86-.25-3.58-13.19-4.44-12.95-13.45-38.58-20.95-84.61-7.5-46.03-13.49-112.45-16.35-157.14-2.86-44.7-2.6-67.68-2.48-79.31,.12-11.63,.1-11.9-.22-11.86-.32,.04-.94,.39-14.78,.76-13.84,.37-106.18-3.34-137.3-5.6"/></g></g><g id="Layer_4"><g><path class="cls-6" d="M1613.03,834.11c4.85-23.22,78.44-203.68,202.68-124.39,124.24,79.29,52.92,229.13,4.08,273.21-48.84,44.08-244.67,32.63-206.75-148.81Z"/><path class="cls-5" d="M1762.64,707.14c-18.61-6.22-80.59,17.44-74.75,34.23,5.84,16.79,32.04,68.29,50.02,67.96,17.98-.33,42.84-96.14,24.72-102.2Z"/><path class="cls-5" d="M1757.26,871.03c-9.57,.12-51.81,94.5-47.96,105.83,3.86,11.34,74.73,9.32,88.45-.63,13.72-9.95-25.8-105.4-40.5-105.2Z"/><path class="cls-5" d="M1716.98,815.33s-42.02-55.2-53.35-43.33c-11.32,11.87-42.27,65.88-35.53,89.23,6.74,23.36,101.24-13.52,102.95-20.83,1.71-7.31-14.07-25.07-14.07-25.07Z"/><path class="cls-5" d="M1734.03,853.8c-1.26-.06-93.75,30.24-93.85,41.11-.1,10.87,20.53,58.34,33.79,67.79,13.25,9.45,27.96-2.99,32.53-15.53,4.56-12.54,42.03-92.7,27.54-93.37Z"/><path class="cls-5" d="M1756.27,810.91s32.34-79.09,41.7-77.35c9.36,1.74,59.25,32.01,59.62,54.78,.37,22.77-93.38,42.58-98,39.68-4.61-2.89-3.32-17.11-3.32-17.11Z"/><path class="cls-5" d="M1764.71,839.2c-4.21,2.12-2.28,16.71,7.77,27.68,10.05,10.97,43.05,80.39,54.97,76.38,11.93-4.02,53.58-107.24,38.71-109.81-14.86-2.57-94.07,2.04-101.45,5.76Z"/></g><g class="cls-4"><g><path class="cls-6" d="M1376.52,450.54c-20.35,16.64-211.46,118.15-271.49-47.69-60.03-165.84,108.05-242.22,183.13-243.12,75.07-.89,247.34,160.8,88.36,290.81Z"/><path class="cls-5" d="M1152.07,446.2c12.86,19.87,86.05,47.08,92.16,27.81,6.12-19.27,17.24-84.79,.48-98.43-16.76-13.64-105.16,51.27-92.64,70.61Z"/><path class="cls-5" d="M1269.12,306.43c8.89,7.3,112.29-42.87,116.5-55.82,4.21-12.95-62.36-66.05-81.78-67.94-19.42-1.89-48.36,112.55-34.72,123.76Z"/><path class="cls-5" d="M1268.07,386.54s.89,81.02,19.42,79.37c18.53-1.66,83.94-25.13,93.71-50.86,9.77-25.74-102.35-66.52-108.93-61.42-6.58,5.1-4.2,32.92-4.2,32.92Z"/><path class="cls-5" d="M1278.7,339.55c1.12,1.02,106.91,46.04,114.44,36.57,7.52-9.47,21.02-67.14,15.3-85.71-5.72-18.56-27.76-19.03-40.54-11.55-12.78,7.48-102.07,48.87-89.2,60.68Z"/><path class="cls-5" d="M1228.91,360s-83.84,44.42-91.26,35.65c-7.42-8.77-32.6-73.99-17.36-94.28,15.24-20.29,115.01,34.92,117.27,41.03,2.26,6.11-8.65,17.6-8.65,17.6Z"/><path class="cls-5" d="M1240.5,328.62c5.32,1.4,13.53-12.91,11.79-30.32-1.74-17.42,15.4-103.94,1.68-109.65-13.72-5.71-122.63,52.7-110.72,66.47,11.91,13.77,87.91,71.06,97.24,73.51Z"/></g></g></g><g id="Layer_2"><g><path class="cls-3" d="M1417.3,530.89c-6.8,12.25-155.1,14.97-157.82-13.6-2.72-28.57,353.73-10.88,348.29,10.89-5.44,21.77-145.57,20.41-152.38,9.53-6.8-10.89,38.1-194.56,54.42-206.8,16.33-12.25,42.88,.61,42.88,.61,34.94,6.99,66.38,26.2,68.13,41.92,1.75,15.72-10.48,34.94-78.61,40.18-68.12,5.24-155.47,12.23-204.38-3.49-48.91-15.72-73.37-47.17-64.63-31.44,8.74,15.72,1.75,118.79,1.75,157.22s10.48,193.9,47.16,167.7c36.68-26.2,55.9-162.46,27.95-178.18-27.95-15.72-52.4,34.94-52.4,83.85s31.44,129.27,54.15,120.54c22.71-8.73,50.66-101.32,78.61-96.08,27.95,5.24,75.12,41.93,78.61,57.64,3.49,15.72-52.41,96.08-71.63,97.83-19.22,1.75-57.64-40.18-57.64-47.17s69.87,45.42,68.13,64.63c-1.75,19.22-97.82,57.65-120.53,47.17-22.71-10.48-50.66-103.06-29.69-68.12,20.96,34.93,19.21,169.44,20.96,185.17,1.75,15.72,40.18,41.93,115.29,45.42,75.12,3.49,129.27-47.17,132.77-61.14,3.49-13.97,57.65-214.86,59.39-356.36,1.75-141.49,10.48-176.43-5.24-178.18-15.72-1.75-45.42,1.75-45.42,54.15s1.75,188.67-1.75,256.79c-3.49,68.13-20.96,190.41-43.67,214.86-22.7,24.46-129.26,69.88-129.26,29.7s201.34-33.72,201.34-33.72c0,0,62.87,54.78,30.45,35.7-32.42-19.07-41.96-101.07-9.53-171.64,32.42-70.56,78.19-135.4,167.82-110.61,89.63,24.79,87.72,125.87,85.82,188.8-1.91,62.93-59.12,129.68-129.68,123.96-70.57-5.72-102.99-34.33-108.7-85.82-5.72-51.49,120.14-62.93,102.98-59.12-17.16,3.81-102.98,5.72-102.98-13.35s15.26-62.94,32.42-62.94,74.37,64.84,74.37,47.68-64.84-57.21-55.31-76.29c9.54-19.07,51.49-45.77,66.75-32.42,15.26,13.35,1.91,118.24,15.26,104.89,13.35-13.35,19.07-101.08,43.87-85.82,24.79,15.26,38.14,49.59,38.14,61.03s-101.08,30.51-87.72,43.86c13.35,13.35,93.45-22.89,95.36-9.54,1.9,13.35,11.44,66.75-15.26,68.65-26.7,1.91-64.84-41.96-64.84-32.42s45.77,49.59,38.14,66.75c-7.63,17.16-38.14,38.14-55.3,30.51-17.16-7.63-17.16-87.73-17.16-87.73,0,0-11.44,80.1-32.42,80.1s-26.7-20.98-41.96-22.89c-15.26-1.91-19.07,43.86-5.72,57.21,13.35,13.35,76.28,24.79,114.42,20.98,38.14-3.82,106.8-66.75,101.07-72.48-5.72-5.72-36.23-3.81-15.26,3.82,20.98,7.63,112.52-1.91,112.52-1.91"/><path class="cls-3" d="M1037.86,953.69c15.8-9.07,271.01-14.04,265.05-.31-13.98,10.48-61.14-248.06-61.14-382.56s13.98-220.11,20.96-228.84c6.99-8.73,57.65-47.17,172.94-47.17s200.9,29.7,181.68,59.39c-19.22,29.7-165.96,26.21-221.85,24.46-55.9-1.75-108.31-12.23-106.56-27.95,1.75-15.72,151.97-19.21,138-10.47-13.97,8.73,20.96-96.08-73.37-150.23-94.33-54.15-185.17,0-227.09,50.66-41.92,50.66-24.46,148.49-5.24,192.16,19.21,43.67,71.62,71.62,82.1,55.9,10.48-15.72,52.41-125.77,20.96-122.28-31.44,3.49-108.31,43.67-90.84,31.44,17.47-12.23,117.04-47.17,92.58-68.13-24.46-20.96-87.34-36.69-89.09-54.16-1.75-17.47,31.44-55.9,48.91-54.15,17.47,1.75,50.66,96.08,54.15,80.36,3.49-15.72-13.98-90.84,1.75-101.32,15.72-10.48,97.82-1.75,97.82,10.48s-48.91,92.58-50.66,75.11c-1.75-17.47,68.12-68.13,83.85-50.66,15.72,17.47,54.15,68.13,15.72,76.86,0,0-32.42,10.45-22.89-1.8,9.52-12.25,131.97,8.16,149.65,5.44"/></g></g></svg>